<svg width="151" height="101" xmlns="http://www.w3.org/2000/svg"><g fill="none" fill-rule="nonzero"><path d="M28.097 78.88l-6.335 3.09a3.949 3.949 0 0 1-5.276-1.828 3.949 3.949 0 0 1 1.808-5.284l82.985-40.474C98.657 24.8 103.1 14.42 112.324 9.922c10.434-5.09 23.033-.723 28.142 9.75 5.108 10.475.791 23.091-9.642 28.18-9.224 4.499-20.139 1.61-26.077-6.356L48.124 69.113l1.44 2.953a2 2 0 0 1-.92 2.674l-2.565 1.25 1.725 3.539 2.565-1.251a2 2 0 0 1 2.674.92l2.302 4.72a2 2 0 0 1-.92 2.675L49.8 88.848a2 2 0 0 1-2.675-.92l-.948-1.946-3.59 1.75.95 1.946a2 2 0 0 1-.921 2.674l-4.624 2.255a2 2 0 0 1-2.674-.92l-2.302-4.72a2 2 0 0 1 .92-2.675l2.284-1.113-1.726-3.539-2.283 1.114a2 2 0 0 1-2.674-.921l-1.44-2.953zm87.695-61.846c-6.52 3.18-9.219 11.066-6.026 17.612 3.193 6.546 11.068 9.275 17.589 6.094 6.521-3.18 9.22-11.065 6.026-17.612-3.193-6.546-11.067-9.275-17.589-6.094z" fill="#58A935" opacity=".702"/><path d="M122.903 78.88l-1.44 2.953a2 2 0 0 1-2.675.92l-2.283-1.113-1.726 3.539 2.283 1.113a2 2 0 0 1 .921 2.674l-2.302 4.72a2 2 0 0 1-2.674.921l-4.624-2.255a2 2 0 0 1-.92-2.674l.948-1.945-3.589-1.75-.948 1.944a2 2 0 0 1-2.675.921l-4.623-2.255a2 2 0 0 1-.921-2.674l2.302-4.72a2 2 0 0 1 2.674-.921l2.565 1.25 1.725-3.537-2.564-1.251a2 2 0 0 1-.921-2.674l1.44-2.953-56.623-27.617C40.315 49.462 29.4 52.35 20.176 47.852c-10.433-5.089-14.75-17.705-9.642-28.18C15.643 9.2 28.242 4.833 38.676 9.923 47.9 14.42 52.343 24.8 49.721 34.384l82.985 40.474a3.949 3.949 0 0 1 1.808 5.284 3.949 3.949 0 0 1-5.276 1.828l-6.335-3.09zM35.208 17.034c-6.522-3.18-14.396-.452-17.59 6.094-3.192 6.547-.494 14.432 6.027 17.612 6.521 3.181 14.396.452 17.589-6.094 3.193-6.546.495-14.432-6.026-17.612z" fill="#4C97B5" opacity=".697"/></g></svg>