<svg width="355" height="148" xmlns="http://www.w3.org/2000/svg" xmlns:xlink="http://www.w3.org/1999/xlink" xml:space="preserve" overflow="hidden"><defs><clipPath id="clip0"><rect x="761" y="286" width="355" height="148"/></clipPath></defs><g clip-path="url(#clip0)" transform="translate(-761 -286)"><path d="M269.617 0C273.171-1.42881e-15 276.052 2.88095 276.052 6.43478L276.052 138.67C276.052 142.223 273.171 145.104 269.617 145.104L6.43479 145.104C2.88096 145.104 9.97212e-06 142.223 9.97212e-06 138.67L9.97212e-06 6.43478C9.97212e-06 2.88095 2.88096-4.98606e-06 6.43479-4.98606e-06Z" fill="#595B5C" transform="matrix(1.00307 0 0 1 761 282.783)"/><path d="M283.13 28.313 347.478 28.313C351.033 28.313 353.913 31.194 353.913 34.7478L353.913 110.357C353.913 113.91 351.033 116.791 347.478 116.791L283.13 116.791 283.13 28.313Z" fill="#595B5C" transform="matrix(1.00307 0 0 1 761 282.783)"/><path d="M284.9 51.3174 341.526 51.3174" stroke="#000000" stroke-width="3.21739" stroke-linecap="square" fill="none" fill-rule="evenodd" transform="matrix(1.00307 0 0 1 761 282.783)"/><path d="M284.9 93.787 341.526 93.787" stroke="#000000" stroke-width="3.21739" stroke-linecap="square" fill="none" fill-rule="evenodd" transform="matrix(1.00307 0 0 1 761 282.783)"/><path d="M284.276 65.4739 320.916 65.4739" stroke="#000000" stroke-width="3.21739" stroke-linecap="square" fill="none" fill-rule="evenodd" transform="matrix(1.00307 0 0 1 761 282.783)"/><path d="M284.276 79.6304 320.916 79.6304" stroke="#000000" stroke-width="3.21739" stroke-linecap="square" fill="none" fill-rule="evenodd" transform="matrix(1.00307 0 0 1 761 282.783)"/><path d="M184.035 74.3217C184.035 99.7316 163.436 120.33 138.026 120.33 112.616 120.33 92.0174 99.7316 92.0174 74.3217 92.0174 48.9118 112.616 28.313 138.026 28.313 163.436 28.313 184.035 48.9118 184.035 74.3217Z" stroke="#D43AFF" stroke-width="3.21739" fill="none" fill-rule="evenodd" transform="matrix(1.00307 0 0 1 761 282.783)"/></g></svg>