<svg width="390" height="329" xmlns="http://www.w3.org/2000/svg" xmlns:xlink="http://www.w3.org/1999/xlink" xml:space="preserve" overflow="hidden"><defs><clipPath id="clip0"><rect x="840" y="320" width="390" height="329"/></clipPath><linearGradient x1="81.9975" y1="66.9495" x2="293.786" y2="231.423" gradientUnits="userSpaceOnUse" spreadMethod="pad" id="fill1"><stop offset="0" stop-color="#69C294"/><stop offset="1" stop-color="#69B3BD"/></linearGradient><linearGradient x1="339.913" y1="58.5558" x2="62.7001" y2="268.923" gradientUnits="userSpaceOnUse" spreadMethod="pad" id="fill2"><stop offset="0" stop-color="#6091CF"/><stop offset="1" stop-color="#6A6BB0"/></linearGradient></defs><g clip-path="url(#clip0)" transform="translate(-840 -320)"><path d="M194.984 1.15701C195.043 1.15923 195.102 1.16145 195.16 1.16367 213.307 1.85382 222.026 6.03187 253.944 21.9211 285.863 37.8103 316.075 37.8062 319.652 43.4925 323.231 49.1787 318.569 80.614 315.619 117.975 311.686 167.796 314.318 231.238 304.34 244.302 268.397 291.361 198.106 325.549 194.984 325.549 191.862 325.542 121.571 291.354 85.6286 244.295 75.6501 231.231 78.283 167.789 74.3495 117.968 71.3998 80.6074 66.7378 49.172 70.3158 43.4859 73.894 37.7997 104.105 37.8036 136.024 21.9144 167.943 6.02521 176.661 1.84716 194.808 1.15701 194.867 1.15478 194.926 1.15256 194.984 1.15035L194.984 1.15701Z" fill="url(#fill1)" fill-rule="evenodd" transform="matrix(1.00008 0 0 1 840 320)"/><path d="M313.927 147.271 194.349 147.271 194.349 1.15035 194.349 1.15369C194.409 1.15589 194.468 1.15811 194.526 1.16033 212.765 1.8505 221.527 6.02859 253.607 21.918 285.687 37.8073 316.051 37.8034 319.646 43.4895 323.242 49.1758 318.557 80.6116 315.593 117.973 314.845 127.395 314.333 137.307 313.927 147.271ZM194.349 325.549C191.211 325.542 120.567 291.354 84.443 244.294 76.3115 233.702 76.5129 189.988 74.7727 147.271L194.349 147.271 194.349 325.549Z" fill="url(#fill2)" fill-rule="evenodd" transform="matrix(1.00008 0 0 1 840 320)"/><path d="M252.502 228.92C235.03 228.92 220.867 215.014 220.867 197.86 220.867 180.706 235.03 166.801 252.502 166.801 269.973 166.801 284.136 180.706 284.136 197.86 284.136 215.014 269.973 228.92 252.502 228.92ZM252.502 224.832C267.674 224.832 279.974 212.757 279.974 197.86 279.974 182.963 267.674 170.888 252.502 170.888 237.33 170.888 225.029 182.963 225.029 197.86 225.029 212.757 237.33 224.832 252.502 224.832Z" fill="#FFFFFF" transform="matrix(1.00008 0 0 1 840 320)"/><path d="M248.054 204.574 263.3 189.274C264.117 188.454 265.444 188.451 266.265 189.269 267.085 190.086 267.087 191.414 266.269 192.234L248.054 210.514 239.885 202.314C239.067 201.494 239.069 200.167 239.889 199.35 240.71 198.532 242.037 198.534 242.854 199.354L248.054 204.574Z" fill="#FFFFFF" transform="matrix(1.00008 0 0 1 840 320)"/><path d="M104.14 71.9023 104.14 112.406C104.14 112.859 104.504 113.227 104.952 113.227L164.23 113.227C164.678 113.227 165.042 112.859 165.042 112.406L165.042 71.9023 104.14 71.9023ZM104.952 59.8182 164.23 59.8182C166.92 59.8182 169.101 62.0255 169.101 64.7482L169.101 112.406C169.101 115.128 166.92 117.336 164.23 117.336L104.952 117.336C102.262 117.336 100.08 115.128 100.08 112.406L100.08 64.7482C100.08 62.0255 102.262 59.8182 104.952 59.8182ZM106.577 68.8566C108.146 68.8566 109.418 67.5691 109.418 65.9807 109.418 64.3924 108.146 63.1048 106.577 63.1048 105.007 63.1048 103.734 64.3924 103.734 65.9807 103.734 67.5691 105.007 68.8566 106.577 68.8566ZM115.509 68.8566C117.078 68.8566 118.35 67.5691 118.35 65.9807 118.35 64.3924 117.078 63.1048 115.509 63.1048 113.939 63.1048 112.667 64.3924 112.667 65.9807 112.667 67.5691 113.939 68.8566 115.509 68.8566Z" fill="#FFFFFF" transform="matrix(1.00008 0 0 1 840 320)"/><path d="M237.411 56.9676C236.271 56.9676 235.348 57.8745 235.348 58.9934L235.348 111.258C235.348 112.377 236.271 113.284 237.411 113.284L267.592 113.284C268.732 113.284 269.656 112.377 269.656 111.258L269.656 58.9934C269.656 57.8745 268.732 56.9676 267.592 56.9676L237.411 56.9676ZM237.411 52.9161 267.592 52.9161C271.011 52.9161 273.783 55.637 273.783 58.9934L273.783 111.258C273.783 114.615 271.011 117.336 267.592 117.336L237.411 117.336C233.993 117.336 231.22 114.615 231.22 111.258L231.22 58.9934C231.22 55.637 233.993 52.9161 237.411 52.9161ZM248.555 62.2346C247.529 62.2346 246.698 61.4183 246.698 60.4114 246.698 59.4045 247.529 58.5882 248.555 58.5882L256.385 58.5882C257.411 58.5882 258.243 59.4045 258.243 60.4114 258.243 61.4183 257.411 62.2346 256.385 62.2346L248.555 62.2346ZM252.682 111.664C250.402 111.664 248.555 109.85 248.555 107.612 248.555 105.374 250.402 103.56 252.682 103.56 254.962 103.56 256.81 105.374 256.81 107.612 256.81 109.85 254.962 111.664 252.682 111.664Z" fill="#FFFFFF" transform="matrix(1.00008 0 0 1 840 320)"/><path d="M155.68 201.503C155.067 202.158 154.05 202.18 153.411 201.55 152.771 200.922 152.75 199.881 153.363 199.226 153.804 198.755 154.164 198.201 154.448 197.536 156.662 192.363 155.452 185.157 151.219 181.781 146.87 178.311 140.162 176.246 133.566 176.909 132.684 176.997 131.898 176.336 131.812 175.432 131.725 174.528 132.371 173.724 133.253 173.635 140.679 172.889 148.202 175.205 153.191 179.185 158.672 183.557 160.155 192.389 157.389 198.856 156.954 199.873 156.383 200.752 155.68 201.503ZM133.038 215.428C133.353 216.277 132.938 217.227 132.108 217.552 131.28 217.875 130.353 217.448 130.038 216.6 127.193 208.951 129.267 201.921 133.889 198.065 135.515 196.709 137.433 196.03 140.208 195.559 140.703 195.475 140.928 195.441 142.007 195.283 146.375 194.644 147.361 194.07 147.361 191.679 147.361 185.91 141.502 182.927 132.925 184.769 125.52 186.359 120.284 192.724 118.821 199.687 117.81 204.498 117.941 209.886 119.23 215.86 119.421 216.748 118.875 217.625 118.009 217.821 117.144 218.017 116.287 217.457 116.094 216.571 114.711 210.156 114.569 204.294 115.683 198.994 117.392 190.853 123.499 183.432 132.266 181.549 142.585 179.335 150.57 183.4 150.57 191.679 150.57 194.216 149.591 196.016 147.738 197.096 146.456 197.844 145.217 198.136 142.462 198.539 141.41 198.693 141.194 198.726 140.733 198.805 138.462 199.19 137.01 199.703 135.916 200.616 132.337 203.602 130.702 209.147 133.038 215.428ZM139.245 224.998C139.853 225.661 139.82 226.701 139.174 227.323 138.529 227.945 137.513 227.913 136.905 227.25 135.08 225.26 133.569 223.281 132.364 221.316 131.891 220.547 132.118 219.532 132.868 219.048 133.618 218.564 134.609 218.795 135.081 219.565 136.174 221.345 137.557 223.157 139.245 224.998ZM152.413 208.445C153.291 208.568 153.905 209.397 153.786 210.297 153.665 211.197 152.856 211.827 151.977 211.703 148.435 211.206 147.245 211.682 147.245 212.689 147.245 214.182 148.264 214.945 151.081 215.069 151.967 215.108 152.654 215.876 152.616 216.783 152.578 217.691 151.829 218.395 150.943 218.356 146.597 218.165 144.034 216.245 144.034 212.689 144.034 210.828 144.991 209.415 146.696 208.736 148.094 208.178 149.981 208.103 152.413 208.445ZM129.126 222.863C129.632 223.61 129.451 224.635 128.723 225.152 127.995 225.671 126.994 225.486 126.489 224.74 124.743 222.165 123.39 219.223 122.428 215.923 120.817 210.394 121.253 203.851 123.469 198.587 123.82 197.753 124.765 197.369 125.579 197.729 126.392 198.089 126.769 199.056 126.417 199.891 124.494 204.455 124.111 210.205 125.504 214.982 126.371 217.957 127.578 220.582 129.126 222.863ZM128.671 196.054C128.101 196.75 127.088 196.84 126.41 196.255 125.731 195.671 125.643 194.633 126.214 193.937 128.347 191.338 132.653 189.542 139.174 188.367 140.047 188.211 140.879 188.809 141.033 189.703 141.186 190.598 140.603 191.45 139.73 191.608 133.89 192.659 130.191 194.202 128.671 196.054ZM153.125 171.062C153.875 171.546 154.1 172.562 153.627 173.33 153.155 174.099 152.164 174.329 151.414 173.844 148.95 172.252 147.21 171.324 144.941 170.532 141.962 169.494 138.527 168.94 134.324 168.94 127.577 168.94 121.197 171.921 116.412 176.51 115.764 177.131 114.748 177.096 114.143 176.433 113.537 175.769 113.571 174.729 114.218 174.108 119.563 168.984 126.696 165.65 134.324 165.65 138.871 165.65 142.655 166.261 145.976 167.418 148.526 168.309 150.467 169.344 153.125 171.062ZM145.878 221.724C146.605 222.244 146.785 223.269 146.277 224.014 145.771 224.76 144.77 224.943 144.043 224.424 136.898 219.325 134.185 213.897 136.431 208.354 137.32 206.163 138.817 204.654 140.889 203.643 142.364 202.924 143.634 202.582 146.521 201.989 146.588 201.975 146.588 201.975 146.653 201.961 147.525 201.782 147.989 201.683 148.495 201.562 149.358 201.357 150.221 201.907 150.421 202.793 150.622 203.677 150.084 204.561 149.221 204.767 148.675 204.897 148.188 205 147.286 205.187 147.219 205.201 147.219 205.201 147.153 205.213 142.142 206.244 140.423 207.082 139.397 209.614 137.846 213.44 139.83 217.408 145.878 221.724ZM127.863 174.721C128.711 174.461 129.606 174.954 129.861 175.825 130.115 176.695 129.633 177.612 128.783 177.873 128.213 178.048 127.647 178.243 127.085 178.461 124.892 179.31 121.988 181.316 119.559 183.868 116.517 187.066 114.403 190.855 113.615 195.019 113.446 195.91 112.604 196.494 111.733 196.321 110.863 196.147 110.294 195.285 110.463 194.393 111.38 189.551 113.806 185.204 117.26 181.572 120.007 178.685 123.304 176.408 125.951 175.383 126.583 175.138 127.221 174.918 127.863 174.721Z" fill="#FFFFFF" transform="matrix(1.00008 0 0 1 840 320)"/><path d="M1.15776 199.01C19.3656 202.437 32.5528 204.15 40.7196 204.15L65.5699 204.15 65.5699 250.776 40.7196 250.776C27.7184 250.776 14.5286 249.079 1.15035 245.687L13.3323 223.826 1.15776 199.01 1.15776 199.01Z" fill="#6165A0" fill-rule="evenodd" transform="matrix(1.00008 0 0 1 840 320)"/><path d="M65.4482 204.762 65.5699 204.762 65.5699 250.776 63.78 250.776 45.1321 227.769Z" fill="#292C55" fill-rule="evenodd" transform="matrix(1.00008 0 0 1 840 320)"/><path d="M387.661 199.01 375.486 223.826 387.668 245.687C374.289 249.079 361.099 250.776 348.098 250.776L323.248 250.776 323.248 204.15 348.098 204.15C356.266 204.15 369.452 202.437 387.661 199.01L387.661 199.01Z" fill="#6165A0" fill-rule="evenodd" transform="matrix(1.00008 0 0 1 840 320)"/><path d="M323.248 204.302 345.062 227.775 325.038 250.776 323.248 250.776Z" fill="#292C55" fill-rule="evenodd" transform="matrix(1.00008 0 0 1 840 320)"/><path d="M44.8636 227.769C94.9038 240.08 144.944 246.236 194.984 246.236 245.024 246.236 295.065 240.08 345.105 227.769L345.105 279.474C295.065 291.785 245.024 297.941 194.984 297.941 144.944 297.941 94.9038 291.785 44.8636 279.474L44.8636 227.769Z" fill="#444884" fill-rule="evenodd" transform="matrix(1.00008 0 0 1 840 320)"/><path d="M118.458 263.275C118.699 263.55 118.807 263.889 118.783 264.294 118.775 264.429 118.725 264.608 118.636 264.835 116.93 268.895 115.208 272.953 113.47 277.007 113.335 277.307 113.128 277.524 112.849 277.66 112.57 277.796 112.277 277.834 111.972 277.775 111.455 277.701 111.079 277.385 110.846 276.829 110.02 274.147 109.2 271.463 108.388 268.779 107.291 271.327 106.189 273.873 105.08 276.418 104.945 276.677 104.767 276.872 104.546 277.001 104.323 277.128 104.087 277.194 103.836 277.194 103.545 277.21 103.265 277.127 102.998 276.942 102.731 276.758 102.561 276.519 102.486 276.223 101.301 271.96 100.132 267.697 98.9788 263.431 98.935 263.253 98.9209 263.069 98.9358 262.877 98.9654 262.493 99.1138 262.177 99.3816 261.928 99.6487 261.678 99.9822 261.569 100.381 261.6 101.026 261.652 101.421 261.973 101.569 262.564 102.456 265.887 103.353 269.211 104.259 272.533 105.341 270.209 106.418 267.884 107.49 265.558 107.759 264.998 108.197 264.739 108.807 264.783 109.377 264.824 109.747 265.139 109.918 265.731 110.682 268.15 111.452 270.568 112.228 272.985 113.557 269.862 114.879 266.736 116.191 263.607 116.436 263.044 116.89 262.784 117.555 262.826 117.917 262.849 118.218 262.999 118.458 263.275ZM132.333 266.926C131.521 267.493 130.959 268.404 130.648 269.66 133.466 269.806 136.284 269.943 139.103 270.068 139.106 269.992 139.108 269.913 139.112 269.838 139.06 268.813 138.642 267.957 137.861 267.264 137.08 266.574 136.176 266.204 135.148 266.154 134.08 266.102 133.143 266.36 132.333 266.926ZM141.488 272.123C141.21 272.353 140.889 272.459 140.526 272.443 137.155 272.298 133.786 272.138 130.417 271.962 130.481 273.374 130.956 274.527 131.846 275.42 132.737 276.314 133.855 276.794 135.201 276.858 136.122 276.902 136.879 276.803 137.467 276.559 138.055 276.316 138.578 275.993 139.038 275.588 139.334 275.428 139.616 275.353 139.885 275.366 140.21 275.38 140.48 275.508 140.69 275.748 140.902 275.987 141.001 276.262 140.989 276.569 140.972 276.974 140.765 277.332 140.367 277.643 139.786 278.176 139.024 278.616 138.085 278.959 137.144 279.301 136.191 279.451 135.228 279.405 133.667 279.331 132.311 278.936 131.159 278.22 130.009 277.507 129.142 276.544 128.56 275.336 127.976 274.129 127.726 272.784 127.804 271.303 127.888 269.687 128.293 268.288 129.013 267.101 129.733 265.915 130.646 265.023 131.754 264.424 132.861 263.825 134.03 263.555 135.265 263.615 136.482 263.673 137.607 264.043 138.645 264.727 139.684 265.41 140.503 266.322 141.105 267.467 141.707 268.61 141.991 269.875 141.954 271.262 141.921 271.607 141.764 271.894 141.488 272.123ZM161.977 277.113C162.699 276.658 163.266 276.026 163.678 275.217 164.088 274.408 164.304 273.503 164.326 272.501 164.348 271.5 164.171 270.59 163.797 269.773 163.423 268.954 162.89 268.306 162.195 267.828 161.5 267.348 160.714 267.096 159.839 267.073 158.943 267.05 158.136 267.26 157.418 267.701 156.699 268.143 156.134 268.757 155.719 269.544 155.304 270.331 155.082 271.236 155.052 272.256 155.022 273.276 155.191 274.196 155.561 275.018 155.931 275.838 156.465 276.493 157.163 276.986 157.861 277.478 158.662 277.736 159.566 277.76 160.451 277.783 161.255 277.568 161.977 277.113ZM163.703 265.638C164.735 266.336 165.539 267.287 166.116 268.494 166.694 269.701 166.969 271.053 166.94 272.556 166.91 274.058 166.582 275.41 165.953 276.611 165.324 277.811 164.471 278.738 163.398 279.387 162.324 280.037 161.15 280.345 159.878 280.311 158.876 280.286 157.946 280.038 157.092 279.571 156.237 279.104 155.55 278.534 155.031 277.862 155.023 278.142 155.015 278.42 155.007 278.7 154.996 279.085 154.857 279.408 154.589 279.67 154.319 279.932 153.984 280.056 153.579 280.043 153.193 280.031 152.876 279.89 152.623 279.622 152.371 279.354 152.252 279.017 152.265 278.614 152.463 272.348 152.661 266.082 152.857 259.815 152.871 259.411 153.003 259.083 153.258 258.831 153.512 258.579 153.837 258.459 154.235 258.472 154.632 258.485 154.954 258.63 155.202 258.907 155.45 259.184 155.568 259.515 155.557 259.9 155.488 262.249 155.419 264.598 155.351 266.947 155.829 266.267 156.512 265.69 157.401 265.215 158.289 264.74 159.228 264.515 160.217 264.54 161.51 264.575 162.671 264.94 163.703 265.638ZM186.209 277.461C186.912 277.002 187.462 276.367 187.857 275.558 188.251 274.751 188.449 273.836 188.45 272.815 188.451 271.813 188.256 270.907 187.866 270.098 187.476 269.288 186.933 268.647 186.238 268.173 185.543 267.699 184.748 267.46 183.853 267.454 182.957 267.449 182.16 267.676 181.461 268.133 180.761 268.591 180.211 269.221 179.815 270.026 179.415 270.833 179.211 271.745 179.203 272.765 179.192 273.787 179.381 274.703 179.767 275.516 180.154 276.328 180.696 276.969 181.395 277.436 182.092 277.903 182.894 278.14 183.798 278.144 184.702 278.149 185.507 277.921 186.209 277.461ZM190.672 265.463C190.928 265.723 191.057 266.064 191.058 266.488 191.062 270.667 191.066 274.846 191.07 279.026 191.071 279.412 190.941 279.74 190.681 280.009 190.421 280.279 190.088 280.414 189.683 280.414 189.28 280.414 188.951 280.283 188.701 280.023 188.45 279.763 188.327 279.43 188.327 279.026 188.327 278.776 188.328 278.525 188.328 278.275 187.827 278.948 187.142 279.52 186.274 279.989 185.405 280.459 184.469 280.691 183.468 280.685 182.157 280.677 180.968 280.332 179.905 279.649 178.843 278.966 178.014 278.018 177.422 276.806 176.829 275.596 176.543 274.24 176.559 272.738 176.576 271.235 176.893 269.886 177.507 268.688 178.12 267.492 178.953 266.562 180.006 265.896 181.058 265.232 182.212 264.902 183.467 264.911 184.475 264.916 185.41 265.131 186.275 265.558 187.139 265.985 187.829 266.526 188.343 267.181 188.343 266.949 188.343 266.719 188.343 266.488 188.344 266.083 188.469 265.746 188.716 265.477 188.963 265.207 189.288 265.073 189.687 265.073 190.086 265.073 190.414 265.203 190.672 265.463ZM214.251 265.418C214.514 265.684 214.649 266.007 214.658 266.392 214.712 268.953 214.766 271.515 214.819 274.075 214.861 276.079 214.342 277.646 213.256 278.776 212.172 279.905 210.615 280.49 208.592 280.522 206.587 280.555 205.028 280.022 203.918 278.928 202.808 277.834 202.244 276.284 202.223 274.28 202.197 271.719 202.17 269.158 202.144 266.596 202.139 266.21 202.265 265.883 202.519 265.61 202.773 265.337 203.091 265.199 203.47 265.194 203.871 265.189 204.2 265.32 204.461 265.586 204.721 265.853 204.853 266.178 204.858 266.562 204.891 269.124 204.923 271.686 204.955 274.248 204.987 276.771 206.185 278.018 208.551 277.981 209.725 277.961 210.614 277.628 211.218 276.981 211.821 276.334 212.111 275.383 212.088 274.132 212.039 271.571 211.991 269.009 211.944 266.449 211.936 266.063 212.059 265.734 212.311 265.458 212.563 265.184 212.878 265.043 213.259 265.035 213.659 265.027 213.989 265.154 214.251 265.418ZM230.155 267.25C230.253 270.118 230.349 272.987 230.448 275.855 230.481 276.818 230.929 277.284 231.794 277.253 231.929 277.247 232.111 277.208 232.338 277.131 232.567 277.056 232.748 277.015 232.883 277.01 233.133 277.001 233.347 277.099 233.529 277.303 233.71 277.509 233.805 277.775 233.818 278.102 233.833 278.507 233.615 278.861 233.163 279.168 232.711 279.474 232.197 279.637 231.619 279.658 230.983 279.681 230.398 279.635 229.864 279.518 229.33 279.402 228.846 279.076 228.416 278.541 227.983 278.007 227.751 277.181 227.715 276.064 227.623 273.157 227.531 270.25 227.438 267.344 226.886 267.362 226.332 267.379 225.78 267.396 225.418 267.408 225.114 267.298 224.869 267.064 224.623 266.83 224.495 266.531 224.485 266.166 224.473 265.8 224.584 265.497 224.815 265.259 225.046 265.02 225.342 264.896 225.704 264.885 226.255 264.868 226.806 264.85 227.359 264.831L227.281 262.405C227.269 262.021 227.387 261.69 227.635 261.411 227.882 261.133 228.204 260.987 228.603 260.974 228.982 260.961 229.304 261.085 229.568 261.344 229.834 261.606 229.973 261.928 229.987 262.313 230.014 263.122 230.042 263.93 230.069 264.739 230.858 264.712 231.648 264.682 232.437 264.653 232.799 264.639 233.102 264.748 233.348 264.98 233.596 265.211 233.726 265.51 233.74 265.875 233.753 266.24 233.645 266.544 233.415 266.783 233.185 267.024 232.889 267.15 232.527 267.164 231.737 267.194 230.945 267.223 230.155 267.25ZM256.981 269.343C257.127 271.91 257.272 274.477 257.418 277.044 257.44 277.429 257.329 277.763 257.084 278.048 256.84 278.332 256.515 278.486 256.112 278.509 255.725 278.532 255.396 278.416 255.121 278.16 254.846 277.906 254.699 277.587 254.678 277.202 254.539 274.634 254.399 272.067 254.259 269.499 254.123 267 253.007 265.809 250.914 265.922 249.789 265.982 248.875 266.392 248.167 267.151 247.46 267.911 247.131 268.818 247.181 269.877 247.306 272.445 247.431 275.013 247.554 277.582 247.574 277.967 247.459 278.301 247.212 278.582 246.965 278.864 246.64 279.016 246.235 279.036 245.831 279.055 245.497 278.941 245.235 278.693 244.973 278.446 244.832 278.12 244.814 277.715 244.529 271.52 244.243 265.326 243.958 259.13 243.94 258.745 244.052 258.412 244.295 258.13 244.538 257.85 244.848 257.699 245.227 257.681 245.624 257.661 245.956 257.78 246.225 258.036 246.493 258.294 246.637 258.614 246.656 258.998 246.774 261.431 246.891 263.865 247.009 266.299 247.448 265.525 248.083 264.852 248.913 264.278 249.742 263.705 250.64 263.392 251.609 263.339 254.951 263.157 256.742 265.15 256.981 269.343ZM281.225 267.514 281.831 275.348C281.86 275.733 281.756 276.069 281.517 276.359 281.279 276.649 280.957 276.809 280.553 276.841 280.169 276.871 279.836 276.763 279.557 276.513 279.277 276.264 279.123 275.949 279.094 275.564L278.509 267.758C278.424 266.625 278.098 265.742 277.535 265.11 276.971 264.477 276.109 264.204 274.949 264.292 274.188 264.348 273.511 264.568 272.916 264.95 272.321 265.33 271.866 265.817 271.554 266.409 271.24 267.002 271.106 267.633 271.152 268.305 271.331 270.91 271.51 273.513 271.688 276.116 271.715 276.5 271.608 276.836 271.366 277.124 271.126 277.411 270.803 277.569 270.399 277.598 269.995 277.625 269.659 277.518 269.392 277.276 269.124 277.034 268.977 276.712 268.951 276.308L268.132 263.971C268.106 263.587 268.213 263.251 268.451 262.964 268.689 262.678 268.999 262.521 269.38 262.494 269.779 262.466 270.115 262.578 270.39 262.828 270.663 263.079 270.815 263.397 270.842 263.781 270.865 264.117 270.888 264.454 270.911 264.79 271.353 263.986 271.997 263.289 272.842 262.695 273.689 262.103 274.614 261.768 275.62 261.692 279.035 261.433 280.903 263.366 281.225 267.514Z" fill="#FFFFFF" fill-rule="evenodd" transform="matrix(1.00008 0 0 1 840 320)"/></g></svg>